<svg width="335" height="50" viewBox="0 0 335 50" fill="none" xmlns="http://www.w3.org/2000/svg">
<rect x="0.5" y="0.5" width="334" height="49" rx="9.5" fill="#2F244E"/>
<rect x="0.5" y="0.5" width="334" height="49" rx="9.5" stroke="#9775FA"/>
<path d="M108.5 22.7046V27.2836" stroke="#9775FA" stroke-width="1.5" stroke-linecap="round" stroke-linejoin="round"/>
<path d="M110.792 24.9941H106.208" stroke="#9775FA" stroke-width="1.5" stroke-linecap="round" stroke-linejoin="round"/>
<path fill-rule="evenodd" clip-rule="evenodd" d="M111.429 18.75H105.571C103.53 18.75 102.25 20.195 102.25 22.2407V27.7593C102.25 29.8049 103.524 31.25 105.571 31.25H111.429C113.476 31.25 114.75 29.8049 114.75 27.7593V22.2407C114.75 20.195 113.476 18.75 111.429 18.75Z" stroke="#9775FA" stroke-width="1.5" stroke-linecap="round" stroke-linejoin="round"/>
<path d="M123.403 31.5L124.538 28.228H129.367L130.496 31.5H132.476L128.027 19.1364H125.872L121.423 31.5H123.403ZM125.081 26.6584L126.904 21.3821H127.001L128.824 26.6584H125.081ZM137.439 31.6811C139.129 31.6811 139.793 30.6488 140.119 30.0572H140.27V31.5H142.033V19.1364H140.228V23.7305H140.119C139.793 23.157 139.177 22.1065 137.451 22.1065C135.211 22.1065 133.563 23.8754 133.563 26.8817C133.563 29.8821 135.187 31.6811 137.439 31.6811ZM137.837 30.1417C136.225 30.1417 135.386 28.723 135.386 26.8636C135.386 25.0224 136.207 23.6399 137.837 23.6399C139.413 23.6399 140.258 24.9258 140.258 26.8636C140.258 28.8136 139.395 30.1417 137.837 30.1417ZM148.08 31.6811C149.771 31.6811 150.435 30.6488 150.761 30.0572H150.911V31.5H152.674V19.1364H150.869V23.7305H150.761C150.435 23.157 149.819 22.1065 148.092 22.1065C145.853 22.1065 144.204 23.8754 144.204 26.8817C144.204 29.8821 145.828 31.6811 148.08 31.6811ZM148.479 30.1417C146.867 30.1417 146.028 28.723 146.028 26.8636C146.028 25.0224 146.849 23.6399 148.479 23.6399C150.054 23.6399 150.899 24.9258 150.899 26.8636C150.899 28.8136 150.036 30.1417 148.479 30.1417ZM161.555 25.9943C161.555 24.5153 162.46 23.6701 163.716 23.6701C164.941 23.6701 165.684 24.473 165.684 25.8192V31.5H167.489V25.6019C167.489 23.3079 166.227 22.1065 164.332 22.1065C162.937 22.1065 162.025 22.7525 161.597 23.7365H161.482V22.2273H159.75V31.5H161.555V25.9943ZM173.906 31.6871C175.929 31.6871 177.359 30.6911 177.77 29.1818L176.061 28.8739C175.735 29.7493 174.951 30.196 173.924 30.196C172.379 30.196 171.34 29.1939 171.292 27.407H177.885V26.767C177.885 23.4165 175.88 22.1065 173.779 22.1065C171.196 22.1065 169.493 24.0746 169.493 26.924C169.493 29.8036 171.171 31.6871 173.906 31.6871ZM171.298 26.0547C171.371 24.7386 172.324 23.5977 173.791 23.5977C175.192 23.5977 176.11 24.636 176.116 26.0547H171.298ZM181.881 31.5H183.716L185.6 24.805H185.739L187.622 31.5H189.463L192.186 22.2273H190.321L188.516 29.0067H188.425L186.614 22.2273H184.748L182.925 29.0369H182.835L181.018 22.2273H179.152L181.881 31.5ZM202.304 31.6871C204.495 31.6871 205.914 30.3711 206.113 28.5661H204.356C204.127 29.5682 203.348 30.1598 202.316 30.1598C200.789 30.1598 199.805 28.886 199.805 26.8636C199.805 24.8775 200.807 23.6278 202.316 23.6278C203.463 23.6278 204.163 24.3523 204.356 25.2216H206.113C205.92 23.3501 204.393 22.1065 202.286 22.1065C199.672 22.1065 197.981 24.0746 197.981 26.9059C197.981 29.701 199.611 31.6871 202.304 31.6871ZM210.742 31.7053C212.275 31.7053 213.139 30.9265 213.483 30.2322H213.555V31.5H215.318V25.3423C215.318 22.6438 213.193 22.1065 211.72 22.1065C210.042 22.1065 208.496 22.7827 207.893 24.473L209.589 24.8594C209.855 24.2013 210.531 23.5675 211.744 23.5675C212.909 23.5675 213.507 24.1772 213.507 25.2276V25.2699C213.507 25.9279 212.831 25.9158 211.165 26.109C209.408 26.3143 207.609 26.7731 207.609 28.88C207.609 30.7031 208.979 31.7053 210.742 31.7053ZM211.134 30.2564C210.114 30.2564 209.378 29.7976 209.378 28.9041C209.378 27.9382 210.235 27.5941 211.279 27.4553C211.865 27.3768 213.253 27.2198 213.513 26.9602V28.1555C213.513 29.2543 212.638 30.2564 211.134 30.2564ZM217.722 31.5H219.527V25.8374C219.527 24.6239 220.463 23.7486 221.743 23.7486C222.117 23.7486 222.54 23.815 222.685 23.8572V22.1307C222.503 22.1065 222.147 22.0884 221.918 22.0884C220.831 22.0884 219.902 22.7042 219.563 23.7003H219.467V22.2273H217.722V31.5ZM227.386 31.6811C229.076 31.6811 229.74 30.6488 230.066 30.0572H230.217V31.5H231.98V19.1364H230.175V23.7305H230.066C229.74 23.157 229.124 22.1065 227.398 22.1065C225.158 22.1065 223.51 23.8754 223.51 26.8817C223.51 29.8821 225.134 31.6811 227.386 31.6811ZM227.784 30.1417C226.172 30.1417 225.333 28.723 225.333 26.8636C225.333 25.0224 226.154 23.6399 227.784 23.6399C229.36 23.6399 230.205 24.9258 230.205 26.8636C230.205 28.8136 229.342 30.1417 227.784 30.1417Z" fill="#9775FA"/>
</svg>
