<svg width="338" height="24" viewBox="0 0 338 24" fill="none" xmlns="http://www.w3.org/2000/svg">
<g opacity="0.6">
<path d="M10.4993 20.3346C15.1017 20.3346 18.8327 16.6037 18.8327 12.0013C18.8327 7.39893 15.1017 3.66797 10.4993 3.66797C5.89698 3.66797 2.16602 7.39893 2.16602 12.0013C2.16602 16.6037 5.89698 20.3346 10.4993 20.3346Z" stroke="white" stroke-width="1.5" stroke-linecap="round" stroke-linejoin="round"/>
<path d="M12.9993 10.1495C12.9993 10.1495 11.9699 8.66797 10.2543 8.66797C8.53856 8.66797 7.16602 10.1495 7.16602 12.0013C7.16602 13.8532 8.53856 15.3346 10.2543 15.3346C11.9699 15.3346 12.9993 13.8532 12.9993 13.8532" stroke="white" stroke-width="1.5" stroke-linecap="round" stroke-linejoin="round"/>
<path d="M27.188 12.416C27.188 11.328 27.4333 10.352 27.924 9.488C28.4147 8.61333 29.0813 7.93067 29.924 7.44C30.7773 6.94933 31.7213 6.704 32.756 6.704C33.972 6.704 35.0333 6.99733 35.94 7.584C36.8467 8.17067 37.508 9.00267 37.924 10.08H36.18C35.8707 9.408 35.4227 8.89067 34.836 8.528C34.26 8.16533 33.5667 7.984 32.756 7.984C31.9773 7.984 31.2787 8.16533 30.66 8.528C30.0413 8.89067 29.556 9.408 29.204 10.08C28.852 10.7413 28.676 11.52 28.676 12.416C28.676 13.3013 28.852 14.08 29.204 14.752C29.556 15.4133 30.0413 15.9253 30.66 16.288C31.2787 16.6507 31.9773 16.832 32.756 16.832C33.5667 16.832 34.26 16.656 34.836 16.304C35.4227 15.9413 35.8707 15.424 36.18 14.752H37.924C37.508 15.8187 36.8467 16.6453 35.94 17.232C35.0333 17.808 33.972 18.096 32.756 18.096C31.7213 18.096 30.7773 17.856 29.924 17.376C29.0813 16.8853 28.4147 16.208 27.924 15.344C27.4333 14.48 27.188 13.504 27.188 12.416ZM43.9154 18.144C43.094 18.144 42.3474 17.9573 41.6754 17.584C41.014 17.2107 40.4914 16.6827 40.1074 16C39.734 15.3067 39.5474 14.5067 39.5474 13.6C39.5474 12.704 39.7394 11.9147 40.1234 11.232C40.518 10.5387 41.0514 10.0107 41.7234 9.648C42.3954 9.27467 43.1474 9.088 43.9794 9.088C44.8114 9.088 45.5634 9.27467 46.2354 9.648C46.9074 10.0107 47.4354 10.5333 47.8194 11.216C48.214 11.8987 48.4114 12.6933 48.4114 13.6C48.4114 14.5067 48.2087 15.3067 47.8034 16C47.4087 16.6827 46.87 17.2107 46.1874 17.584C45.5047 17.9573 44.7474 18.144 43.9154 18.144ZM43.9154 16.864C44.438 16.864 44.9287 16.7413 45.3874 16.496C45.846 16.2507 46.214 15.8827 46.4914 15.392C46.7794 14.9013 46.9234 14.304 46.9234 13.6C46.9234 12.896 46.7847 12.2987 46.5074 11.808C46.23 11.3173 45.8674 10.9547 45.4194 10.72C44.9714 10.4747 44.486 10.352 43.9634 10.352C43.43 10.352 42.9394 10.4747 42.4914 10.72C42.054 10.9547 41.702 11.3173 41.4354 11.808C41.1687 12.2987 41.0354 12.896 41.0354 13.6C41.0354 14.3147 41.1634 14.9173 41.4194 15.408C41.686 15.8987 42.038 16.2667 42.4754 16.512C42.9127 16.7467 43.3927 16.864 43.9154 16.864ZM51.7818 10.848C52.0698 10.3467 52.4964 9.93067 53.0618 9.6C53.6378 9.25867 54.3044 9.088 55.0618 9.088C55.8404 9.088 56.5444 9.27467 57.1737 9.648C57.8137 10.0213 58.3151 10.5493 58.6778 11.232C59.0404 11.904 59.2218 12.688 59.2218 13.584C59.2218 14.4693 59.0404 15.2587 58.6778 15.952C58.3151 16.6453 57.8137 17.184 57.1737 17.568C56.5444 17.952 55.8404 18.144 55.0618 18.144C54.3151 18.144 53.6538 17.9787 53.0778 17.648C52.5124 17.3067 52.0804 16.8853 51.7818 16.384V22.16H50.3258V9.232H51.7818V10.848ZM57.7338 13.584C57.7338 12.9227 57.6004 12.3467 57.3338 11.856C57.0671 11.3653 56.7044 10.992 56.2458 10.736C55.7978 10.48 55.3018 10.352 54.7578 10.352C54.2244 10.352 53.7284 10.4853 53.2698 10.752C52.8218 11.008 52.4591 11.3867 52.1818 11.888C51.9151 12.3787 51.7818 12.9493 51.7818 13.6C51.7818 14.2613 51.9151 14.8427 52.1818 15.344C52.4591 15.8347 52.8218 16.2133 53.2698 16.48C53.7284 16.736 54.2244 16.864 54.7578 16.864C55.3018 16.864 55.7978 16.736 56.2458 16.48C56.7044 16.2133 57.0671 15.8347 57.3338 15.344C57.6004 14.8427 57.7338 14.256 57.7338 13.584ZM68.6903 9.232L63.4103 22.128H61.9062L63.6343 17.904L60.0983 9.232H61.7143L64.4663 16.336L67.1863 9.232H68.6903ZM71.6099 10.656C71.8659 10.1547 72.2285 9.76533 72.6979 9.488C73.1779 9.21067 73.7592 9.072 74.4419 9.072V10.576H74.0579C72.4259 10.576 71.6099 11.4613 71.6099 13.232V18H70.1539V9.232H71.6099V10.656ZM76.8746 7.808C76.5973 7.808 76.3626 7.712 76.1706 7.52C75.9786 7.328 75.8826 7.09333 75.8826 6.816C75.8826 6.53867 75.9786 6.304 76.1706 6.112C76.3626 5.92 76.5973 5.824 76.8746 5.824C77.1413 5.824 77.3653 5.92 77.5466 6.112C77.7386 6.304 77.8346 6.53867 77.8346 6.816C77.8346 7.09333 77.7386 7.328 77.5466 7.52C77.3653 7.712 77.1413 7.808 76.8746 7.808ZM77.5786 9.232V18H76.1226V9.232H77.5786ZM83.6761 9.088C84.4335 9.088 85.0948 9.25333 85.6601 9.584C86.2361 9.91467 86.6628 10.3307 86.9401 10.832V9.232H88.4121V18.192C88.4121 18.992 88.2415 19.7013 87.9001 20.32C87.5588 20.9493 87.0681 21.44 86.4281 21.792C85.7988 22.144 85.0628 22.32 84.2201 22.32C83.0681 22.32 82.1081 22.048 81.3401 21.504C80.5721 20.96 80.1188 20.2187 79.9801 19.28H81.4201C81.5801 19.8133 81.9108 20.24 82.4121 20.56C82.9135 20.8907 83.5161 21.056 84.2201 21.056C85.0201 21.056 85.6708 20.8053 86.1721 20.304C86.6841 19.8027 86.9401 19.0987 86.9401 18.192V16.352C86.6521 16.864 86.2255 17.2907 85.6601 17.632C85.0948 17.9733 84.4335 18.144 83.6761 18.144C82.8975 18.144 82.1881 17.952 81.5481 17.568C80.9188 17.184 80.4228 16.6453 80.0601 15.952C79.6975 15.2587 79.5161 14.4693 79.5161 13.584C79.5161 12.688 79.6975 11.904 80.0601 11.232C80.4228 10.5493 80.9188 10.0213 81.5481 9.648C82.1881 9.27467 82.8975 9.088 83.6761 9.088ZM86.9401 13.6C86.9401 12.9387 86.8068 12.3627 86.5401 11.872C86.2735 11.3813 85.9108 11.008 85.4521 10.752C85.0041 10.4853 84.5081 10.352 83.9641 10.352C83.4201 10.352 82.9241 10.48 82.4761 10.736C82.0281 10.992 81.6708 11.3653 81.4041 11.856C81.1375 12.3467 81.0041 12.9227 81.0041 13.584C81.0041 14.256 81.1375 14.8427 81.4041 15.344C81.6708 15.8347 82.0281 16.2133 82.4761 16.48C82.9241 16.736 83.4201 16.864 83.9641 16.864C84.5081 16.864 85.0041 16.736 85.4521 16.48C85.9108 16.2133 86.2735 15.8347 86.5401 15.344C86.8068 14.8427 86.9401 14.2613 86.9401 13.6ZM95.2246 9.072C95.886 9.072 96.4833 9.216 97.0166 9.504C97.55 9.78133 97.966 10.2027 98.2646 10.768C98.574 11.3333 98.7286 12.0213 98.7286 12.832V18H97.2886V13.04C97.2886 12.1653 97.07 11.4987 96.6326 11.04C96.1953 10.5707 95.598 10.336 94.8406 10.336C94.0726 10.336 93.4593 10.576 93.0006 11.056C92.5526 11.536 92.3286 12.2347 92.3286 13.152V18H90.8726V6.16H92.3286V10.48C92.6166 10.032 93.0113 9.68533 93.5126 9.44C94.0246 9.19467 94.5953 9.072 95.2246 9.072ZM102.883 10.432V15.6C102.883 16.0267 102.974 16.3307 103.155 16.512C103.336 16.6827 103.651 16.768 104.099 16.768H105.171V18H103.859C103.048 18 102.44 17.8133 102.035 17.44C101.63 17.0667 101.427 16.4533 101.427 15.6V10.432H100.291V9.232H101.427V7.024H102.883V9.232H105.171V10.432H102.883ZM117.073 18L114.417 13.44H112.657V18H111.201V6.848H114.801C115.643 6.848 116.353 6.992 116.929 7.28C117.515 7.568 117.953 7.95733 118.241 8.448C118.529 8.93867 118.673 9.49867 118.673 10.128C118.673 10.896 118.449 11.5733 118.001 12.16C117.563 12.7467 116.902 13.136 116.017 13.328L118.817 18H117.073ZM112.657 12.272H114.801C115.59 12.272 116.182 12.08 116.577 11.696C116.971 11.3013 117.169 10.7787 117.169 10.128C117.169 9.46667 116.971 8.95467 116.577 8.592C116.193 8.22933 115.601 8.048 114.801 8.048H112.657V12.272ZM121.687 7.808C121.41 7.808 121.175 7.712 120.983 7.52C120.791 7.328 120.695 7.09333 120.695 6.816C120.695 6.53867 120.791 6.304 120.983 6.112C121.175 5.92 121.41 5.824 121.687 5.824C121.954 5.824 122.178 5.92 122.359 6.112C122.551 6.304 122.647 6.53867 122.647 6.816C122.647 7.09333 122.551 7.328 122.359 7.52C122.178 7.712 121.954 7.808 121.687 7.808ZM122.391 9.232V18H120.935V9.232H122.391ZM135.417 9.072C136.099 9.072 136.707 9.216 137.241 9.504C137.774 9.78133 138.195 10.2027 138.505 10.768C138.814 11.3333 138.969 12.0213 138.969 12.832V18H137.529V13.04C137.529 12.1653 137.31 11.4987 136.873 11.04C136.446 10.5707 135.865 10.336 135.129 10.336C134.371 10.336 133.769 10.5813 133.321 11.072C132.873 11.552 132.649 12.2507 132.649 13.168V18H131.209V13.04C131.209 12.1653 130.99 11.4987 130.553 11.04C130.126 10.5707 129.545 10.336 128.809 10.336C128.051 10.336 127.449 10.5813 127.001 11.072C126.553 11.552 126.329 12.2507 126.329 13.168V18H124.873V9.232H126.329V10.496C126.617 10.0373 127.001 9.68533 127.481 9.44C127.971 9.19467 128.51 9.072 129.097 9.072C129.833 9.072 130.483 9.23733 131.049 9.568C131.614 9.89867 132.035 10.384 132.313 11.024C132.558 10.4053 132.963 9.92533 133.529 9.584C134.094 9.24267 134.723 9.072 135.417 9.072ZM149.357 13.28C149.357 13.5573 149.341 13.8507 149.309 14.16H142.301C142.354 15.024 142.648 15.7013 143.181 16.192C143.725 16.672 144.381 16.912 145.149 16.912C145.778 16.912 146.301 16.768 146.717 16.48C147.144 16.1813 147.442 15.7867 147.613 15.296H149.181C148.946 16.1387 148.477 16.8267 147.773 17.36C147.069 17.8827 146.194 18.144 145.149 18.144C144.317 18.144 143.57 17.9573 142.909 17.584C142.258 17.2107 141.746 16.6827 141.373 16C141 15.3067 140.813 14.5067 140.813 13.6C140.813 12.6933 140.994 11.8987 141.357 11.216C141.72 10.5333 142.226 10.0107 142.877 9.648C143.538 9.27467 144.296 9.088 145.149 9.088C145.981 9.088 146.717 9.26933 147.357 9.632C147.997 9.99467 148.488 10.496 148.829 11.136C149.181 11.7653 149.357 12.48 149.357 13.28ZM147.853 12.976C147.853 12.4213 147.73 11.9467 147.485 11.552C147.24 11.1467 146.904 10.8427 146.477 10.64C146.061 10.4267 145.597 10.32 145.085 10.32C144.349 10.32 143.72 10.5547 143.197 11.024C142.685 11.4933 142.392 12.144 142.317 12.976H147.853ZM152.735 6.16V18H151.279V6.16H152.735ZM159.066 16.832C160.421 15.744 161.482 14.8533 162.25 14.16C163.018 13.456 163.663 12.7253 164.186 11.968C164.719 11.2 164.986 10.448 164.986 9.712C164.986 9.01867 164.815 8.47467 164.474 8.08C164.143 7.67467 163.605 7.472 162.858 7.472C162.133 7.472 161.567 7.70133 161.162 8.16C160.767 8.608 160.554 9.21067 160.522 9.968H159.114C159.157 8.77333 159.519 7.85067 160.202 7.2C160.885 6.54933 161.765 6.224 162.842 6.224C163.941 6.224 164.81 6.528 165.45 7.136C166.101 7.744 166.426 8.58133 166.426 9.648C166.426 10.5333 166.159 11.3973 165.626 12.24C165.103 13.072 164.506 13.808 163.834 14.448C163.162 15.0773 162.303 15.8133 161.258 16.656H166.762V17.872H159.066V16.832ZM168.445 12.096C168.445 10.2613 168.744 8.832 169.341 7.808C169.938 6.77333 170.984 6.256 172.477 6.256C173.96 6.256 175 6.77333 175.597 7.808C176.194 8.832 176.493 10.2613 176.493 12.096C176.493 13.9627 176.194 15.4133 175.597 16.448C175 17.4827 173.96 18 172.477 18C170.984 18 169.938 17.4827 169.341 16.448C168.744 15.4133 168.445 13.9627 168.445 12.096ZM175.053 12.096C175.053 11.168 174.989 10.384 174.861 9.744C174.744 9.09333 174.493 8.57067 174.109 8.176C173.736 7.78133 173.192 7.584 172.477 7.584C171.752 7.584 171.197 7.78133 170.813 8.176C170.44 8.57067 170.189 9.09333 170.061 9.744C169.944 10.384 169.885 11.168 169.885 12.096C169.885 13.056 169.944 13.8613 170.061 14.512C170.189 15.1627 170.44 15.6853 170.813 16.08C171.197 16.4747 171.752 16.672 172.477 16.672C173.192 16.672 173.736 16.4747 174.109 16.08C174.493 15.6853 174.744 15.1627 174.861 14.512C174.989 13.8613 175.053 13.056 175.053 12.096ZM178.316 16.832C179.671 15.744 180.732 14.8533 181.5 14.16C182.268 13.456 182.913 12.7253 183.436 11.968C183.969 11.2 184.236 10.448 184.236 9.712C184.236 9.01867 184.065 8.47467 183.724 8.08C183.393 7.67467 182.855 7.472 182.108 7.472C181.383 7.472 180.817 7.70133 180.412 8.16C180.017 8.608 179.804 9.21067 179.772 9.968H178.364C178.407 8.77333 178.769 7.85067 179.452 7.2C180.135 6.54933 181.015 6.224 182.092 6.224C183.191 6.224 184.06 6.528 184.7 7.136C185.351 7.744 185.676 8.58133 185.676 9.648C185.676 10.5333 185.409 11.3973 184.876 12.24C184.353 13.072 183.756 13.808 183.084 14.448C182.412 15.0773 181.553 15.8133 180.508 16.656H186.012V17.872H178.316V16.832ZM187.519 16.832C188.874 15.744 189.935 14.8533 190.703 14.16C191.471 13.456 192.116 12.7253 192.639 11.968C193.172 11.2 193.439 10.448 193.439 9.712C193.439 9.01867 193.268 8.47467 192.927 8.08C192.596 7.67467 192.058 7.472 191.311 7.472C190.586 7.472 190.02 7.70133 189.615 8.16C189.22 8.608 189.007 9.21067 188.975 9.968H187.567C187.61 8.77333 187.972 7.85067 188.655 7.2C189.338 6.54933 190.218 6.224 191.295 6.224C192.394 6.224 193.263 6.528 193.903 7.136C194.554 7.744 194.879 8.58133 194.879 9.648C194.879 10.5333 194.612 11.3973 194.079 12.24C193.556 13.072 192.959 13.808 192.287 14.448C191.615 15.0773 190.756 15.8133 189.711 16.656H195.215V17.872H187.519V16.832ZM197.602 18.096C197.325 18.096 197.09 18 196.898 17.808C196.706 17.616 196.61 17.3813 196.61 17.104C196.61 16.8267 196.706 16.592 196.898 16.4C197.09 16.208 197.325 16.112 197.602 16.112C197.869 16.112 198.093 16.208 198.274 16.4C198.466 16.592 198.562 16.8267 198.562 17.104C198.562 17.3813 198.466 17.616 198.274 17.808C198.093 18 197.869 18.096 197.602 18.096ZM211.355 15.52H206.491L205.595 18H204.059L208.091 6.912H209.771L213.787 18H212.251L211.355 15.52ZM210.939 14.336L208.923 8.704L206.907 14.336H210.939ZM217.001 6.16V18H215.545V6.16H217.001ZM220.938 6.16V18H219.482V6.16H220.938ZM229.141 10.656C229.397 10.1547 229.76 9.76533 230.229 9.488C230.709 9.21067 231.29 9.072 231.973 9.072V10.576H231.589C229.957 10.576 229.141 11.4613 229.141 13.232V18H227.685V9.232H229.141V10.656ZM234.406 7.808C234.129 7.808 233.894 7.712 233.702 7.52C233.51 7.328 233.414 7.09333 233.414 6.816C233.414 6.53867 233.51 6.304 233.702 6.112C233.894 5.92 234.129 5.824 234.406 5.824C234.673 5.824 234.897 5.92 235.078 6.112C235.27 6.304 235.366 6.53867 235.366 6.816C235.366 7.09333 235.27 7.328 235.078 7.52C234.897 7.712 234.673 7.808 234.406 7.808ZM235.11 9.232V18H233.654V9.232H235.11ZM241.207 9.088C241.965 9.088 242.626 9.25333 243.191 9.584C243.767 9.91467 244.194 10.3307 244.471 10.832V9.232H245.943V18.192C245.943 18.992 245.773 19.7013 245.431 20.32C245.09 20.9493 244.599 21.44 243.959 21.792C243.33 22.144 242.594 22.32 241.751 22.32C240.599 22.32 239.639 22.048 238.871 21.504C238.103 20.96 237.65 20.2187 237.511 19.28H238.951C239.111 19.8133 239.442 20.24 239.943 20.56C240.445 20.8907 241.047 21.056 241.751 21.056C242.551 21.056 243.202 20.8053 243.703 20.304C244.215 19.8027 244.471 19.0987 244.471 18.192V16.352C244.183 16.864 243.757 17.2907 243.191 17.632C242.626 17.9733 241.965 18.144 241.207 18.144C240.429 18.144 239.719 17.952 239.079 17.568C238.45 17.184 237.954 16.6453 237.591 15.952C237.229 15.2587 237.047 14.4693 237.047 13.584C237.047 12.688 237.229 11.904 237.591 11.232C237.954 10.5493 238.45 10.0213 239.079 9.648C239.719 9.27467 240.429 9.088 241.207 9.088ZM244.471 13.6C244.471 12.9387 244.338 12.3627 244.071 11.872C243.805 11.3813 243.442 11.008 242.983 10.752C242.535 10.4853 242.039 10.352 241.495 10.352C240.951 10.352 240.455 10.48 240.007 10.736C239.559 10.992 239.202 11.3653 238.935 11.856C238.669 12.3467 238.535 12.9227 238.535 13.584C238.535 14.256 238.669 14.8427 238.935 15.344C239.202 15.8347 239.559 16.2133 240.007 16.48C240.455 16.736 240.951 16.864 241.495 16.864C242.039 16.864 242.535 16.736 242.983 16.48C243.442 16.2133 243.805 15.8347 244.071 15.344C244.338 14.8427 244.471 14.2613 244.471 13.6ZM252.756 9.072C253.417 9.072 254.015 9.216 254.548 9.504C255.081 9.78133 255.497 10.2027 255.796 10.768C256.105 11.3333 256.26 12.0213 256.26 12.832V18H254.82V13.04C254.82 12.1653 254.601 11.4987 254.164 11.04C253.727 10.5707 253.129 10.336 252.372 10.336C251.604 10.336 250.991 10.576 250.532 11.056C250.084 11.536 249.86 12.2347 249.86 13.152V18H248.404V6.16H249.86V10.48C250.148 10.032 250.543 9.68533 251.044 9.44C251.556 9.19467 252.127 9.072 252.756 9.072ZM260.414 10.432V15.6C260.414 16.0267 260.505 16.3307 260.686 16.512C260.868 16.6827 261.182 16.768 261.63 16.768H262.702V18H261.39C260.58 18 259.972 17.8133 259.566 17.44C259.161 17.0667 258.958 16.4533 258.958 15.6V10.432H257.822V9.232H258.958V7.024H260.414V9.232H262.702V10.432H260.414ZM270.188 10.656C270.444 10.1547 270.807 9.76533 271.276 9.488C271.756 9.21067 272.337 9.072 273.02 9.072V10.576H272.636C271.004 10.576 270.188 11.4613 270.188 13.232V18H268.732V9.232H270.188V10.656ZM282.701 13.28C282.701 13.5573 282.685 13.8507 282.653 14.16H275.645C275.698 15.024 275.991 15.7013 276.525 16.192C277.069 16.672 277.725 16.912 278.493 16.912C279.122 16.912 279.645 16.768 280.061 16.48C280.487 16.1813 280.786 15.7867 280.957 15.296H282.525C282.29 16.1387 281.821 16.8267 281.117 17.36C280.413 17.8827 279.538 18.144 278.493 18.144C277.661 18.144 276.914 17.9573 276.253 17.584C275.602 17.2107 275.09 16.6827 274.717 16C274.343 15.3067 274.157 14.5067 274.157 13.6C274.157 12.6933 274.338 11.8987 274.701 11.216C275.063 10.5333 275.57 10.0107 276.221 9.648C276.882 9.27467 277.639 9.088 278.493 9.088C279.325 9.088 280.061 9.26933 280.701 9.632C281.341 9.99467 281.831 10.496 282.173 11.136C282.525 11.7653 282.701 12.48 282.701 13.28ZM281.197 12.976C281.197 12.4213 281.074 11.9467 280.829 11.552C280.583 11.1467 280.247 10.8427 279.821 10.64C279.405 10.4267 278.941 10.32 278.429 10.32C277.693 10.32 277.063 10.5547 276.541 11.024C276.029 11.4933 275.735 12.144 275.661 12.976H281.197ZM287.727 18.144C287.055 18.144 286.452 18.032 285.919 17.808C285.385 17.5733 284.964 17.2533 284.655 16.848C284.345 16.432 284.175 15.9573 284.143 15.424H285.647C285.689 15.8613 285.892 16.2187 286.255 16.496C286.628 16.7733 287.113 16.912 287.711 16.912C288.265 16.912 288.703 16.7893 289.023 16.544C289.343 16.2987 289.503 15.9893 289.503 15.616C289.503 15.232 289.332 14.9493 288.991 14.768C288.649 14.576 288.121 14.3893 287.407 14.208C286.756 14.0373 286.223 13.8667 285.807 13.696C285.401 13.5147 285.049 13.2533 284.751 12.912C284.463 12.56 284.319 12.1013 284.319 11.536C284.319 11.088 284.452 10.6773 284.719 10.304C284.985 9.93067 285.364 9.63733 285.855 9.424C286.345 9.2 286.905 9.088 287.535 9.088C288.505 9.088 289.289 9.33333 289.887 9.824C290.484 10.3147 290.804 10.9867 290.847 11.84H289.391C289.359 11.3813 289.172 11.0133 288.831 10.736C288.5 10.4587 288.052 10.32 287.487 10.32C286.964 10.32 286.548 10.432 286.239 10.656C285.929 10.88 285.775 11.1733 285.775 11.536C285.775 11.824 285.865 12.064 286.047 12.256C286.239 12.4373 286.473 12.5867 286.751 12.704C287.039 12.8107 287.433 12.9333 287.935 13.072C288.564 13.2427 289.076 13.4133 289.471 13.584C289.865 13.744 290.201 13.9893 290.479 14.32C290.767 14.6507 290.916 15.0827 290.927 15.616C290.927 16.096 290.793 16.528 290.527 16.912C290.26 17.296 289.881 17.6 289.391 17.824C288.911 18.0373 288.356 18.144 287.727 18.144ZM300.982 13.28C300.982 13.5573 300.966 13.8507 300.934 14.16H293.926C293.979 15.024 294.273 15.7013 294.806 16.192C295.35 16.672 296.006 16.912 296.774 16.912C297.403 16.912 297.926 16.768 298.342 16.48C298.769 16.1813 299.067 15.7867 299.238 15.296H300.806C300.571 16.1387 300.102 16.8267 299.398 17.36C298.694 17.8827 297.819 18.144 296.774 18.144C295.942 18.144 295.195 17.9573 294.534 17.584C293.883 17.2107 293.371 16.6827 292.998 16C292.625 15.3067 292.438 14.5067 292.438 13.6C292.438 12.6933 292.619 11.8987 292.982 11.216C293.345 10.5333 293.851 10.0107 294.502 9.648C295.163 9.27467 295.921 9.088 296.774 9.088C297.606 9.088 298.342 9.26933 298.982 9.632C299.622 9.99467 300.113 10.496 300.454 11.136C300.806 11.7653 300.982 12.48 300.982 13.28ZM299.478 12.976C299.478 12.4213 299.355 11.9467 299.11 11.552C298.865 11.1467 298.529 10.8427 298.102 10.64C297.686 10.4267 297.222 10.32 296.71 10.32C295.974 10.32 295.345 10.5547 294.822 11.024C294.31 11.4933 294.017 12.144 293.942 12.976H299.478ZM304.36 10.656C304.616 10.1547 304.979 9.76533 305.448 9.488C305.928 9.21067 306.509 9.072 307.192 9.072V10.576H306.808C305.176 10.576 304.36 11.4613 304.36 13.232V18H302.904V9.232H304.36V10.656ZM312.137 16.656L314.857 9.232H316.409L312.969 18H311.273L307.833 9.232H309.401L312.137 16.656ZM325.841 13.28C325.841 13.5573 325.825 13.8507 325.793 14.16H318.785C318.839 15.024 319.132 15.7013 319.665 16.192C320.209 16.672 320.865 16.912 321.633 16.912C322.263 16.912 322.785 16.768 323.201 16.48C323.628 16.1813 323.927 15.7867 324.097 15.296H325.665C325.431 16.1387 324.961 16.8267 324.257 17.36C323.553 17.8827 322.679 18.144 321.633 18.144C320.801 18.144 320.055 17.9573 319.393 17.584C318.743 17.2107 318.231 16.6827 317.857 16C317.484 15.3067 317.297 14.5067 317.297 13.6C317.297 12.6933 317.479 11.8987 317.841 11.216C318.204 10.5333 318.711 10.0107 319.361 9.648C320.023 9.27467 320.78 9.088 321.633 9.088C322.465 9.088 323.201 9.26933 323.841 9.632C324.481 9.99467 324.972 10.496 325.313 11.136C325.665 11.7653 325.841 12.48 325.841 13.28ZM324.337 12.976C324.337 12.4213 324.215 11.9467 323.969 11.552C323.724 11.1467 323.388 10.8427 322.961 10.64C322.545 10.4267 322.081 10.32 321.569 10.32C320.833 10.32 320.204 10.5547 319.681 11.024C319.169 11.4933 318.876 12.144 318.801 12.976H324.337ZM327.219 13.584C327.219 12.688 327.401 11.904 327.763 11.232C328.126 10.5493 328.622 10.0213 329.251 9.648C329.891 9.27467 330.606 9.088 331.395 9.088C332.078 9.088 332.713 9.248 333.299 9.568C333.886 9.87733 334.334 10.288 334.643 10.8V6.16H336.115V18H334.643V16.352C334.355 16.8747 333.929 17.3067 333.363 17.648C332.798 17.9787 332.137 18.144 331.379 18.144C330.601 18.144 329.891 17.952 329.251 17.568C328.622 17.184 328.126 16.6453 327.763 15.952C327.401 15.2587 327.219 14.4693 327.219 13.584ZM334.643 13.6C334.643 12.9387 334.51 12.3627 334.243 11.872C333.977 11.3813 333.614 11.008 333.155 10.752C332.707 10.4853 332.211 10.352 331.667 10.352C331.123 10.352 330.627 10.48 330.179 10.736C329.731 10.992 329.374 11.3653 329.107 11.856C328.841 12.3467 328.707 12.9227 328.707 13.584C328.707 14.256 328.841 14.8427 329.107 15.344C329.374 15.8347 329.731 16.2133 330.179 16.48C330.627 16.736 331.123 16.864 331.667 16.864C332.211 16.864 332.707 16.736 333.155 16.48C333.614 16.2133 333.977 15.8347 334.243 15.344C334.51 14.8427 334.643 14.2613 334.643 13.6Z" fill="white"/>
</g>
</svg>
