<svg width="300" height="185" viewBox="0 0 300 185" fill="none" xmlns="http://www.w3.org/2000/svg">
<mask id="mask0_109_6634" style="mask-type:alpha" maskUnits="userSpaceOnUse" x="0" y="0" width="300" height="185">
<rect width="300" height="185" rx="10" fill="#FF5757"/>
</mask>
<g mask="url(#mask0_109_6634)">
<path fill-rule="evenodd" clip-rule="evenodd" d="M389.48 388.574C354.704 443.827 302.519 484.127 243.988 501.13C187.556 517.523 130.01 499.624 74.3801 480.111C18.1519 460.389 -44.9932 443.47 -77.3115 388.434C-109.201 334.129 -87.6181 263.822 -90.7104 198.974C-94.0458 129.032 -136.285 47.8762 -96.1169 -5.918C-55.4958 -60.3185 24.2928 -29.3732 87.1134 -39.1708C136.097 -46.8103 181.776 -62.5043 230.982 -56.933C292.665 -49.949 364.829 -54.939 405.9 -3.07646C447.419 49.3528 436.864 129.433 433.933 199.345C431.134 266.118 423.902 333.885 389.48 388.574Z" fill="#FFCB3C"/>
<path fill-rule="evenodd" clip-rule="evenodd" d="M-11.2946 56.3075C53.3938 49.6456 124.641 41.6826 177.155 84.3867C229.652 127.077 237.99 207.334 258.868 276.003C280.079 345.767 315.166 415.222 299.502 486.791C283.354 560.573 236.895 629.034 174.812 660.064C116.553 689.182 51.3803 655.618 -11.2946 642.13C-60.9535 631.443 -106.278 614.663 -151.685 589.8C-207.64 559.162 -279.508 543.975 -305.791 480.877C-332.493 416.773 -306.19 341.194 -282.563 275.602C-260.269 213.712 -224.465 159.883 -176.075 120.764C-127.75 81.6976 -70.7019 62.4255 -11.2946 56.3075Z" fill="#FEAA2B"/>
<path fill-rule="evenodd" clip-rule="evenodd" d="M384.102 -17.4774C442.151 -7.28536 473.021 61.0326 515.78 106.042C551.848 144.008 589.748 176.835 614.35 224.886C644.645 284.058 691.991 348.468 673.079 413.274C654.165 478.083 580.964 496.701 526.224 526.861C480.91 551.828 434.488 568.24 384.102 572.492C329.7 577.082 275.251 577.163 225.469 552.239C166.461 522.696 105.912 484.675 78.2906 419.382C49.1199 350.426 47.9814 266.332 74.8639 196.226C100.693 128.867 162.662 92.3992 218.459 53.8395C270.041 18.1931 324.178 -27.9987 384.102 -17.4774Z" fill="#FF5757"/>
</g>
<path d="M26.1985 28.0909V39H27.7646V31.1005H27.8658L31.0831 38.984H32.3828L35.6001 31.1058H35.7013V39H37.2674V28.0909H35.2699L31.7969 36.571H31.669L28.196 28.0909H26.1985ZM39.5326 39H41.1253V34.0036C41.1253 32.9329 41.9509 32.1605 43.0802 32.1605C43.4104 32.1605 43.7833 32.2191 43.9111 32.2564V30.733C43.7513 30.7116 43.4371 30.6957 43.2346 30.6957C42.2758 30.6957 41.4555 31.239 41.1572 32.1179H41.072V30.8182H39.5326V39ZM46.8821 34.142C46.8821 32.837 47.7077 32.0913 48.8423 32.0913C49.9396 32.0913 50.5948 32.7891 50.5948 33.9876V39H52.1875V33.7958C52.1875 31.7557 51.0689 30.7116 49.3857 30.7116C48.1126 30.7116 47.3455 31.2656 46.962 32.1499H46.8608V28.0909H45.2894V39H46.8821V34.142ZM58.4104 39H60.0564V34.8718H62.2936C62.3309 34.8718 62.3628 34.8718 62.4001 34.8718L64.616 39H66.491L64.0727 34.5842C65.4097 34.0888 66.0756 32.9755 66.0756 31.5107C66.0756 29.5025 64.8291 28.0909 62.2989 28.0909H58.4104V39ZM60.0564 33.4549V29.5025H62.1231C63.7478 29.5025 64.4189 30.2749 64.4189 31.5107C64.4189 32.7411 63.7478 33.4549 62.1444 33.4549H60.0564ZM70.3316 39.1811C71.6846 39.1811 72.4463 38.494 72.7499 37.8814H72.8138V39H74.3692V33.5668C74.3692 31.1857 72.4942 30.7116 71.1945 30.7116C69.7137 30.7116 68.3501 31.3082 67.8174 32.7997L69.3142 33.1406C69.5486 32.56 70.1452 32.0007 71.2158 32.0007C72.2439 32.0007 72.7712 32.5387 72.7712 33.4656V33.5028C72.7712 34.0835 72.1746 34.0728 70.7045 34.2433C69.1544 34.4244 67.567 34.8292 67.567 36.6882C67.567 38.2969 68.7762 39.1811 70.3316 39.1811ZM70.6778 37.9027C69.7776 37.9027 69.1278 37.4979 69.1278 36.7095C69.1278 35.8572 69.8841 35.5536 70.8057 35.4311C71.3224 35.3619 72.5475 35.2234 72.7765 34.9943V36.049C72.7765 37.0185 72.0042 37.9027 70.6778 37.9027ZM76.4906 30.8182V39.522C76.4906 40.2784 76.1763 40.6939 75.4199 40.6939H75.1642V42.0629C75.2761 42.0682 75.3773 42.0682 75.4892 42.0682C77.1831 42.0682 78.0833 41.1733 78.0833 39.5327V30.8182H76.4906ZM77.2789 29.5558C77.8276 29.5558 78.2857 29.1296 78.2857 28.6076C78.2857 28.0856 77.8276 27.6541 77.2789 27.6541C76.725 27.6541 76.2722 28.0856 76.2722 28.6076C76.2722 29.1296 76.725 29.5558 77.2789 29.5558ZM85.4088 35.6069C85.4142 36.9972 84.3808 37.6577 83.4859 37.6577C82.5004 37.6577 81.8186 36.9439 81.8186 35.8306V30.8182H80.2259V36.0224C80.2259 38.0518 81.3392 39.1065 82.9106 39.1065C84.1411 39.1065 84.9774 38.4567 85.3556 37.5831H85.4408V39H87.0068V30.8182H85.4088V35.6069Z" fill="#1B262C"/>
<path d="M29.32 158.364H30.4492L30.4545 157.144C32.7397 156.979 34.0501 155.722 34.0554 153.937C34.0501 152.046 32.4893 151.183 30.8487 150.794L30.4972 150.704L30.5185 147.662C31.3707 147.811 31.9194 148.323 32.0046 149.09H33.9062C33.8743 147.396 32.5426 146.16 30.5291 145.968L30.5344 144.727H29.4052L29.3999 145.968C27.4023 146.171 25.9641 147.396 25.9695 149.159C25.9695 150.725 27.0827 151.625 28.8778 152.089L29.3572 152.211L29.3359 155.434C28.3825 155.285 27.6953 154.741 27.6261 153.777H25.6818C25.7564 155.775 27.1307 156.963 29.3253 157.144L29.32 158.364ZM30.4652 155.434L30.4865 152.51C31.456 152.792 32.0739 153.165 32.0792 153.921C32.0739 154.71 31.44 155.274 30.4652 155.434ZM29.3679 150.416C28.6328 150.182 27.9616 149.793 27.9723 149.037C27.9776 148.349 28.4943 147.817 29.3892 147.662L29.3679 150.416ZM39.6258 157.149C41.9589 157.149 43.6581 155.812 43.6528 153.969C43.6581 152.605 42.8058 151.625 41.2771 151.407V151.322C42.4596 151.066 43.2533 150.187 43.248 148.962C43.2533 147.3 41.8364 145.942 39.6578 145.942C37.5377 145.942 35.8971 147.204 35.8545 149.031H37.7561C37.7881 148.115 38.6404 147.545 39.6471 147.545C40.6645 147.545 41.341 148.163 41.3357 149.079C41.341 150.033 40.5526 150.667 39.4234 150.667H38.4593V152.19H39.4234C40.803 152.19 41.6233 152.882 41.618 153.868C41.6233 154.832 40.787 155.493 39.6205 155.493C38.5232 155.493 37.6762 154.923 37.6283 154.033H35.6254C35.6787 155.876 37.3247 157.149 39.6258 157.149ZM47.4441 155.509H45.7395L45.7022 156.105C45.6117 157.549 45.2335 159.019 45.079 159.663H46.3787C46.6344 158.992 47.2257 157.437 47.3748 156.094L47.4441 155.509ZM49.6453 157H51.6961L56.3303 147.779V146.091H48.8996V147.742H54.2849V147.817L49.6453 157ZM61.8102 157.149C64.1646 157.165 65.7466 155.546 65.7413 153.388C65.7466 151.327 64.2765 149.836 62.3642 149.836C61.1923 149.836 60.1589 150.406 59.6369 151.343H59.5623C59.5676 149.047 60.4093 147.652 61.9221 147.652C62.8596 147.652 63.4934 148.195 63.6958 149.031H65.6401C65.4057 147.268 63.9835 145.942 61.9221 145.942C59.3013 145.942 57.6447 148.126 57.6447 151.854C57.6394 155.855 59.7168 157.138 61.8102 157.149ZM61.7995 155.551C60.633 155.551 59.7807 154.587 59.7754 153.447C59.786 152.302 60.6703 151.343 61.8262 151.343C62.9821 151.343 63.829 152.259 63.8237 153.431C63.829 154.624 62.9554 155.551 61.7995 155.551ZM71.4569 157.149C73.79 157.149 75.4892 155.812 75.4838 153.969C75.4892 152.605 74.6369 151.625 73.1081 151.407V151.322C74.2907 151.066 75.0843 150.187 75.079 148.962C75.0843 147.3 73.6674 145.942 71.4888 145.942C69.3688 145.942 67.7282 147.204 67.6855 149.031H69.5872C69.6191 148.115 70.4714 147.545 71.4782 147.545C72.4956 147.545 73.1721 148.163 73.1667 149.079C73.1721 150.033 72.3837 150.667 71.2544 150.667H70.2903V152.19H71.2544C72.6341 152.19 73.4544 152.882 73.449 153.868C73.4544 154.832 72.6181 155.493 71.4515 155.493C70.3542 155.493 69.5073 154.923 69.4593 154.033H67.4565C67.5098 155.876 69.1557 157.149 71.4569 157.149ZM78.1991 157.117C78.8277 157.117 79.3657 156.595 79.371 155.945C79.3657 155.306 78.8277 154.784 78.1991 154.784C77.5493 154.784 77.0219 155.306 77.0273 155.945C77.0219 156.595 77.5493 157.117 78.1991 157.117ZM84.8082 157.149C87.168 157.149 88.8565 155.849 88.8619 154.076C88.8565 152.712 87.8498 151.572 86.582 151.359V151.284C87.6847 151.039 88.4517 150.049 88.457 148.866C88.4517 147.188 86.907 145.942 84.8082 145.942C82.6935 145.942 81.1488 147.183 81.1541 148.866C81.1488 150.049 81.9052 151.039 83.0291 151.284V151.359C81.7401 151.572 80.744 152.712 80.7493 154.076C80.744 155.849 82.4272 157.149 84.8082 157.149ZM84.8082 155.626C83.5724 155.626 82.7734 154.944 82.7841 153.937C82.7734 152.893 83.631 152.153 84.8082 152.153C85.9695 152.153 86.8217 152.898 86.8324 153.937C86.8217 154.944 86.0281 155.626 84.8082 155.626ZM84.8082 150.656C83.7962 150.656 83.0717 150.001 83.0824 149.053C83.0717 148.115 83.7749 147.487 84.8082 147.487C85.8256 147.487 86.5234 148.115 86.5341 149.053C86.5234 150.006 85.8043 150.656 84.8082 150.656ZM91.0125 157H93.0633L97.6975 147.779V146.091H90.2668V147.742H95.6521V147.817L91.0125 157Z" fill="#1B262C"/>
<g clip-path="url(#clip0_109_6634)">
<path d="M272.778 38.7099L272.496 37.3037H269.354L268.854 38.6999L266.335 38.7049C267.534 35.8213 268.736 32.9388 269.94 30.0574C270.145 29.5687 270.509 29.3199 271.045 29.3224C271.455 29.3262 272.124 29.3262 273.052 29.3237L275 38.7062L272.778 38.7099ZM270.061 35.3774H272.086L271.33 31.8524L270.061 35.3774ZM253.825 29.3212L256.358 29.3237L252.443 38.7112L249.879 38.7087C249.234 36.2291 248.597 33.7474 247.969 31.2637C247.844 30.7687 247.596 30.4224 247.12 30.2587C246.696 30.1124 245.99 29.8874 245 29.5812V29.3249H249.046C249.746 29.3249 250.155 29.6637 250.286 30.3587C250.419 31.0549 250.751 32.8274 251.286 35.6762L253.825 29.3212ZM259.837 29.3237L257.835 38.7087L255.425 38.7062L257.425 29.3212L259.837 29.3237ZM264.725 29.1499C265.446 29.1499 266.355 29.3749 266.878 29.5812L266.455 31.5274C265.983 31.3374 265.205 31.0812 264.551 31.0899C263.601 31.1062 263.014 31.5049 263.014 31.8874C263.014 32.5099 264.034 32.8237 265.084 33.5037C266.282 34.2787 266.44 34.9749 266.425 35.7312C266.409 37.3012 265.084 38.8499 262.289 38.8499C261.014 38.8312 260.554 38.7237 259.514 38.3549L259.954 36.3237C261.013 36.7674 261.461 36.9087 262.366 36.9087C263.195 36.9087 263.906 36.5737 263.913 35.9899C263.917 35.5749 263.663 35.3687 262.733 34.8562C261.802 34.3424 260.497 33.6312 260.515 32.2037C260.536 30.3762 262.267 29.1499 264.726 29.1499H264.725Z" fill="#1B262C"/>
</g>
<path d="M26.8651 91.5455H25.3232L28.7255 101H30.3736L33.7759 91.5455H32.234L29.6026 99.2457H29.4964L26.8651 91.5455ZM35.0305 101H36.4108V93.9091H35.0305V101ZM35.7275 92.815C36.203 92.815 36.6001 92.4457 36.6001 91.9933C36.6001 91.5408 36.203 91.1669 35.7275 91.1669C35.2474 91.1669 34.855 91.5408 34.855 91.9933C34.855 92.4457 35.2474 92.815 35.7275 92.815ZM43.5813 95.6403C43.2951 94.5369 42.4318 93.8168 40.8991 93.8168C39.2972 93.8168 38.1616 94.6616 38.1616 95.9173C38.1616 96.9237 38.771 97.593 40.1005 97.8885L41.3008 98.1516C41.984 98.304 42.3026 98.6087 42.3026 99.0518C42.3026 99.6012 41.7163 100.031 40.8114 100.031C39.9851 100.031 39.4542 99.6751 39.288 98.978L37.9538 99.1811C38.1847 100.437 39.228 101.143 40.8207 101.143C42.5334 101.143 43.7198 100.234 43.7198 98.9503C43.7198 97.9485 43.0827 97.3299 41.7809 97.0298L40.6545 96.7713C39.8743 96.5866 39.5373 96.3235 39.5419 95.8434C39.5373 95.2987 40.1282 94.9109 40.913 94.9109C41.7717 94.9109 42.1687 95.3864 42.3303 95.8619L43.5813 95.6403ZM47.301 101.157C48.4736 101.157 49.1338 100.561 49.3969 100.031H49.4523V101H50.8003V96.2912C50.8003 94.2276 49.1753 93.8168 48.0489 93.8168C46.7655 93.8168 45.5837 94.3338 45.1221 95.6264L46.4193 95.9219C46.6224 95.4187 47.1395 94.9339 48.0674 94.9339C48.9584 94.9339 49.4154 95.4002 49.4154 96.2035V96.2358C49.4154 96.739 48.8983 96.7298 47.6242 96.8775C46.2808 97.0344 44.9051 97.3853 44.9051 98.9964C44.9051 100.391 45.953 101.157 47.301 101.157ZM47.6011 100.049C46.8209 100.049 46.2577 99.6982 46.2577 99.0149C46.2577 98.2763 46.9133 98.0131 47.7119 97.907C48.1597 97.8469 49.2215 97.7269 49.42 97.5284V98.4425C49.42 99.2827 48.7506 100.049 47.6011 100.049ZM64.0427 94.62C63.7195 92.598 62.1361 91.4162 60.1372 91.4162C57.6904 91.4162 55.8854 93.2489 55.8854 96.2727C55.8854 99.2965 57.6812 101.129 60.1372 101.129C62.2146 101.129 63.7334 99.8274 64.0427 97.9577L62.6024 97.9531C62.3577 99.1626 61.3421 99.8274 60.1464 99.8274C58.526 99.8274 57.3026 98.5856 57.3026 96.2727C57.3026 93.9783 58.5214 92.718 60.151 92.718C61.3559 92.718 62.3669 93.3967 62.6024 94.62H64.0427ZM67.0192 91.5455H65.6388V101H67.0192V91.5455ZM70.9397 101.157C72.1123 101.157 72.7725 100.561 73.0356 100.031H73.091V101H74.439V96.2912C74.439 94.2276 72.814 93.8168 71.6876 93.8168C70.4042 93.8168 69.2224 94.3338 68.7607 95.6264L70.058 95.9219C70.2611 95.4187 70.7781 94.9339 71.7061 94.9339C72.597 94.9339 73.0541 95.4002 73.0541 96.2035V96.2358C73.0541 96.739 72.537 96.7298 71.2629 96.8775C69.9195 97.0344 68.5438 97.3853 68.5438 98.9964C68.5438 100.391 69.5917 101.157 70.9397 101.157ZM71.2398 100.049C70.4596 100.049 69.8964 99.6982 69.8964 99.0149C69.8964 98.2763 70.5519 98.0131 71.3506 97.907C71.7984 97.8469 72.8602 97.7269 73.0587 97.5284V98.4425C73.0587 99.2827 72.3893 100.049 71.2398 100.049ZM81.5911 95.6403C81.3049 94.5369 80.4416 93.8168 78.9089 93.8168C77.307 93.8168 76.1713 94.6616 76.1713 95.9173C76.1713 96.9237 76.7807 97.593 78.1103 97.8885L79.3105 98.1516C79.9938 98.304 80.3123 98.6087 80.3123 99.0518C80.3123 99.6012 79.726 100.031 78.8212 100.031C77.9949 100.031 77.464 99.6751 77.2978 98.978L75.9636 99.1811C76.1944 100.437 77.2377 101.143 78.8304 101.143C80.5431 101.143 81.7296 100.234 81.7296 98.9503C81.7296 97.9485 81.0925 97.3299 79.7907 97.0298L78.6642 96.7713C77.8841 96.5866 77.5471 96.3235 77.5517 95.8434C77.5471 95.2987 78.138 94.9109 78.9228 94.9109C79.7814 94.9109 80.1784 95.3864 80.34 95.8619L81.5911 95.6403ZM88.5608 95.6403C88.2746 94.5369 87.4113 93.8168 85.8786 93.8168C84.2767 93.8168 83.1411 94.6616 83.1411 95.9173C83.1411 96.9237 83.7504 97.593 85.08 97.8885L86.2803 98.1516C86.9635 98.304 87.282 98.6087 87.282 99.0518C87.282 99.6012 86.6958 100.031 85.7909 100.031C84.9646 100.031 84.4337 99.6751 84.2675 98.978L82.9333 99.1811C83.1642 100.437 84.2075 101.143 85.8002 101.143C87.5129 101.143 88.6993 100.234 88.6993 98.9503C88.6993 97.9485 88.0622 97.3299 86.7604 97.0298L85.634 96.7713C84.8538 96.5866 84.5168 96.3235 84.5214 95.8434C84.5168 95.2987 85.1077 94.9109 85.8925 94.9109C86.7512 94.9109 87.1482 95.3864 87.3097 95.8619L88.5608 95.6403ZM90.217 101H91.5973V93.9091H90.217V101ZM90.9141 92.815C91.3896 92.815 91.7866 92.4457 91.7866 91.9933C91.7866 91.5408 91.3896 91.1669 90.9141 91.1669C90.4339 91.1669 90.0415 91.5408 90.0415 91.9933C90.0415 92.4457 90.4339 92.815 90.9141 92.815ZM96.4411 101.143C98.1169 101.143 99.2018 100.137 99.3541 98.7564H98.0107C97.8353 99.5227 97.2398 99.9751 96.4504 99.9751C95.2824 99.9751 94.5299 99.0011 94.5299 97.4545C94.5299 95.9357 95.2963 94.9801 96.4504 94.9801C97.3275 94.9801 97.863 95.5341 98.0107 96.1989H99.3541C99.2064 94.7678 98.0384 93.8168 96.4273 93.8168C94.4284 93.8168 93.1357 95.3217 93.1357 97.4869C93.1357 99.6243 94.3822 101.143 96.4411 101.143Z" fill="#1B262C"/>
<path d="M29.5384 125.149C31.6158 125.149 33.1392 123.615 33.1392 121.527C33.1392 119.412 31.669 117.862 29.6662 117.862C28.9311 117.862 28.2173 118.123 27.7699 118.48H27.706L28.0895 115.263H32.6491V114.091H26.9815L26.321 119.46L27.5568 119.609C28.0096 119.284 28.782 119.05 29.4531 119.055C30.8434 119.066 31.8608 120.121 31.8608 121.548C31.8608 122.949 30.8807 123.977 29.5384 123.977C28.4197 123.977 27.5302 123.258 27.429 122.273H26.1506C26.2305 123.935 27.6634 125.149 29.5384 125.149ZM41.0302 125H47.9123V123.828H42.8413V123.743L45.2916 121.122C47.1666 119.114 47.7206 118.176 47.7206 116.967C47.7206 115.284 46.3569 113.942 44.4393 113.942C42.527 113.942 41.0729 115.241 41.0729 117.159H42.33C42.33 115.918 43.1343 115.092 44.3967 115.092C45.5792 115.092 46.4848 115.817 46.4848 116.967C46.4848 117.974 45.8935 118.72 44.6311 120.099L41.0302 124.041V125ZM59.2964 125.149C61.3738 125.149 62.8972 123.615 62.8972 121.527C62.8972 119.412 61.427 117.862 59.4242 117.862C58.6891 117.862 57.9753 118.123 57.5279 118.48H57.464L57.8475 115.263H62.4072V114.091H56.7395L56.079 119.46L57.3148 119.609C57.7676 119.284 58.54 119.05 59.2111 119.055C60.6014 119.066 61.6188 120.121 61.6188 121.548C61.6188 122.949 60.6387 123.977 59.2964 123.977C58.1778 123.977 57.2882 123.258 57.187 122.273H55.9086C55.9885 123.935 57.4214 125.149 59.2964 125.149ZM70.5326 122.763H75.6675V125H76.9246V122.763H78.4161V121.591H76.9246V114.091H75.3266L70.5326 121.676V122.763ZM75.6675 121.591H71.9601V121.506L75.5823 115.774H75.6675V121.591ZM98.2904 120.227H99.3131L99.2279 117.884L101.209 119.141L101.721 118.246L99.6327 117.159L101.721 116.072L101.209 115.178L99.2279 116.435L99.3131 114.091H98.2904L98.3756 116.435L96.3941 115.178L95.8827 116.072L97.9708 117.159L95.8827 118.246L96.3941 119.141L98.3756 117.884L98.2904 120.227ZM111.565 120.227H112.588L112.503 117.884L114.484 119.141L114.996 118.246L112.908 117.159L114.996 116.072L114.484 115.178L112.503 116.435L112.588 114.091H111.565L111.651 116.435L109.669 115.178L109.158 116.072L111.246 117.159L109.158 118.246L109.669 119.141L111.651 117.884L111.565 120.227ZM124.84 120.227H125.863L125.778 117.884L127.759 119.141L128.271 118.246L126.183 117.159L128.271 116.072L127.759 115.178L125.778 116.435L125.863 114.091H124.84L124.926 116.435L122.944 115.178L122.433 116.072L124.521 117.159L122.433 118.246L122.944 119.141L124.926 117.884L124.84 120.227ZM138.115 120.227H139.138L139.053 117.884L141.034 119.141L141.546 118.246L139.458 117.159L141.546 116.072L141.034 115.178L139.053 116.435L139.138 114.091H138.115L138.201 116.435L136.219 115.178L135.708 116.072L137.796 117.159L135.708 118.246L136.219 119.141L138.201 117.884L138.115 120.227ZM161.384 120.227H162.407L162.322 117.884L164.303 119.141L164.815 118.246L162.726 117.159L164.815 116.072L164.303 115.178L162.322 116.435L162.407 114.091H161.384L161.469 116.435L159.488 115.178L158.976 116.072L161.065 117.159L158.976 118.246L159.488 119.141L161.469 117.884L161.384 120.227ZM174.659 120.227H175.682L175.597 117.884L177.578 119.141L178.09 118.246L176.001 117.159L178.09 116.072L177.578 115.178L175.597 116.435L175.682 114.091H174.659L174.744 116.435L172.763 115.178L172.251 116.072L174.34 117.159L172.251 118.246L172.763 119.141L174.744 117.884L174.659 120.227ZM187.934 120.227H188.957L188.872 117.884L190.853 119.141L191.365 118.246L189.276 117.159L191.365 116.072L190.853 115.178L188.872 116.435L188.957 114.091H187.934L188.019 116.435L186.038 115.178L185.526 116.072L187.615 117.159L185.526 118.246L186.038 119.141L188.019 117.884L187.934 120.227ZM201.209 120.227H202.232L202.147 117.884L204.128 119.141L204.64 118.246L202.551 117.159L204.64 116.072L204.128 115.178L202.147 116.435L202.232 114.091H201.209L201.294 116.435L199.313 115.178L198.801 116.072L200.89 117.159L198.801 118.246L199.313 119.141L201.294 117.884L201.209 120.227ZM222.709 125H224.094L228.952 115.327V114.091H221.964V115.263H227.589V115.348L222.709 125ZM240.101 125.149C242.306 125.176 243.744 123.514 243.744 121.484C243.744 119.375 242.183 117.862 240.314 117.862C239.19 117.862 238.226 118.411 237.629 119.311H237.544C237.549 116.653 238.583 115.114 240.271 115.114C241.422 115.114 242.114 115.838 242.359 116.818H243.659C243.393 115.124 242.103 113.942 240.271 113.942C237.815 113.942 236.308 116.115 236.308 119.972C236.308 124.004 238.311 125.128 240.101 125.149ZM240.101 123.977C238.732 123.977 237.73 122.811 237.736 121.506C237.741 120.201 238.79 119.034 240.143 119.034C241.48 119.034 242.466 120.131 242.466 121.484C242.466 122.869 241.438 123.977 240.101 123.977ZM255.087 113.942C252.871 113.915 251.443 115.582 251.443 117.585C251.443 119.695 252.999 121.207 254.874 121.207C256.003 121.207 256.962 120.653 257.558 119.759H257.644C257.644 122.443 256.6 123.977 254.916 123.977C253.766 123.977 253.063 123.253 252.828 122.251H251.529C251.784 123.977 253.084 125.149 254.916 125.149C257.367 125.149 258.879 122.976 258.879 119.098C258.879 115.092 256.877 113.963 255.087 113.942ZM255.087 115.114C256.45 115.114 257.452 116.286 257.452 117.564C257.452 118.864 256.387 120.036 255.044 120.036C253.702 120.036 252.722 118.949 252.722 117.585C252.722 116.222 253.745 115.114 255.087 115.114ZM270.307 125.149C272.715 125.149 274.1 123.109 274.1 119.545C274.1 116.009 272.694 113.942 270.307 113.942C267.921 113.942 266.515 116.009 266.515 119.545C266.515 123.109 267.9 125.149 270.307 125.149ZM270.307 123.977C268.72 123.977 267.793 122.385 267.793 119.545C267.793 116.712 268.731 115.092 270.307 115.092C271.884 115.092 272.822 116.712 272.822 119.545C272.822 122.385 271.895 123.977 270.307 123.977Z" fill="#1B262C"/>
<path d="M134.449 161.137V173.501H132.578V163.009H132.505L129.547 164.941V163.154L132.632 161.137H134.449ZM137.963 173.501V161.137H142.491C143.368 161.137 144.094 161.282 144.67 161.572C145.245 161.858 145.676 162.246 145.962 162.737C146.247 163.224 146.39 163.773 146.39 164.385C146.39 164.9 146.296 165.335 146.107 165.689C145.917 166.039 145.664 166.321 145.346 166.534C145.032 166.744 144.686 166.897 144.308 166.993V167.114C144.718 167.134 145.119 167.267 145.509 167.512C145.903 167.754 146.229 168.098 146.487 168.545C146.745 168.991 146.873 169.535 146.873 170.175C146.873 170.806 146.724 171.374 146.427 171.877C146.133 172.376 145.678 172.773 145.062 173.066C144.446 173.356 143.66 173.501 142.702 173.501H137.963ZM139.828 171.901H142.521C143.414 171.901 144.054 171.728 144.44 171.382C144.827 171.036 145.02 170.603 145.02 170.084C145.02 169.694 144.921 169.335 144.724 169.009C144.527 168.684 144.245 168.424 143.879 168.231C143.517 168.038 143.086 167.941 142.587 167.941H139.828V171.901ZM139.828 166.486H142.328C142.746 166.486 143.122 166.406 143.456 166.245C143.794 166.084 144.062 165.858 144.259 165.568C144.461 165.275 144.561 164.929 144.561 164.53C144.561 164.019 144.382 163.59 144.024 163.244C143.666 162.898 143.116 162.725 142.376 162.725H139.828V166.486ZM148.917 173.501V172.149L153.1 167.814C153.547 167.343 153.915 166.931 154.205 166.577C154.499 166.218 154.718 165.878 154.863 165.556C155.008 165.234 155.081 164.892 155.081 164.53C155.081 164.12 154.984 163.765 154.791 163.468C154.598 163.166 154.334 162.934 154 162.773C153.666 162.608 153.29 162.526 152.871 162.526C152.428 162.526 152.042 162.616 151.712 162.797C151.382 162.979 151.128 163.234 150.951 163.564C150.774 163.894 150.686 164.281 150.686 164.723H148.905C148.905 163.971 149.078 163.313 149.424 162.749C149.77 162.186 150.245 161.749 150.849 161.439C151.452 161.125 152.139 160.968 152.907 160.968C153.684 160.968 154.368 161.123 154.96 161.433C155.555 161.739 156.02 162.158 156.354 162.689C156.688 163.216 156.855 163.812 156.855 164.476C156.855 164.935 156.769 165.383 156.596 165.822C156.427 166.261 156.131 166.75 155.708 167.289C155.286 167.824 154.698 168.474 153.946 169.239L151.489 171.811V171.901H157.055V173.501H148.917ZM163.659 173.67C163.108 173.662 162.564 173.561 162.029 173.368C161.498 173.175 161.015 172.853 160.58 172.402C160.146 171.951 159.797 171.346 159.536 170.585C159.278 169.824 159.149 168.875 159.149 167.736C159.149 166.657 159.256 165.699 159.469 164.862C159.687 164.025 159.999 163.319 160.405 162.743C160.812 162.164 161.303 161.723 161.878 161.421C162.454 161.119 163.1 160.968 163.816 160.968C164.552 160.968 165.206 161.113 165.778 161.403C166.349 161.693 166.812 162.093 167.166 162.604C167.525 163.115 167.752 163.697 167.849 164.349H166.007C165.883 163.834 165.635 163.413 165.265 163.087C164.895 162.761 164.412 162.598 163.816 162.598C162.91 162.598 162.204 162.993 161.697 163.782C161.194 164.57 160.94 165.667 160.936 167.072H161.027C161.24 166.722 161.502 166.424 161.812 166.178C162.126 165.929 162.476 165.737 162.862 165.605C163.253 165.468 163.663 165.399 164.094 165.399C164.81 165.399 165.458 165.574 166.038 165.925C166.621 166.271 167.086 166.75 167.432 167.361C167.778 167.973 167.951 168.673 167.951 169.462C167.951 170.251 167.772 170.965 167.414 171.605C167.06 172.245 166.561 172.752 165.917 173.127C165.273 173.497 164.52 173.678 163.659 173.67ZM163.653 172.1C164.128 172.1 164.552 171.984 164.927 171.75C165.301 171.517 165.597 171.203 165.814 170.809C166.032 170.414 166.14 169.973 166.14 169.486C166.14 169.012 166.034 168.579 165.82 168.188C165.611 167.798 165.321 167.488 164.951 167.259C164.585 167.029 164.166 166.915 163.695 166.915C163.337 166.915 163.005 166.983 162.699 167.12C162.397 167.257 162.132 167.446 161.902 167.687C161.673 167.929 161.492 168.207 161.359 168.521C161.23 168.83 161.166 169.158 161.166 169.505C161.166 169.967 161.272 170.396 161.486 170.79C161.703 171.185 161.999 171.503 162.373 171.744C162.751 171.982 163.178 172.1 163.653 172.1ZM170.15 173.501V172.149L174.334 167.814C174.781 167.343 175.149 166.931 175.439 166.577C175.732 166.218 175.952 165.878 176.097 165.556C176.241 165.234 176.314 164.892 176.314 164.53C176.314 164.12 176.217 163.765 176.024 163.468C175.831 163.166 175.567 162.934 175.233 162.773C174.899 162.608 174.523 162.526 174.104 162.526C173.662 162.526 173.275 162.616 172.945 162.797C172.615 162.979 172.362 163.234 172.185 163.564C172.008 163.894 171.919 164.281 171.919 164.723H170.138C170.138 163.971 170.311 163.313 170.657 162.749C171.003 162.186 171.478 161.749 172.082 161.439C172.686 161.125 173.372 160.968 174.141 160.968C174.917 160.968 175.602 161.123 176.193 161.433C176.789 161.739 177.254 162.158 177.588 162.689C177.922 163.216 178.089 163.812 178.089 164.476C178.089 164.935 178.002 165.383 177.829 165.822C177.66 166.261 177.364 166.75 176.942 167.289C176.519 167.824 175.932 168.474 175.179 169.239L172.722 171.811V171.901H178.288V173.501H170.15ZM191.014 165.158H189.13C189.058 164.755 188.923 164.401 188.726 164.095C188.529 163.79 188.287 163.53 188.001 163.317C187.716 163.103 187.396 162.942 187.042 162.834C186.691 162.725 186.319 162.671 185.925 162.671C185.212 162.671 184.574 162.85 184.011 163.208C183.452 163.566 183.009 164.091 182.683 164.784C182.361 165.476 182.2 166.321 182.2 167.319C182.2 168.325 182.361 169.175 182.683 169.867C183.009 170.559 183.454 171.082 184.017 171.436C184.58 171.791 185.214 171.968 185.919 171.968C186.309 171.968 186.679 171.915 187.029 171.811C187.384 171.702 187.704 171.543 187.989 171.334C188.275 171.124 188.517 170.869 188.714 170.567C188.915 170.261 189.054 169.911 189.13 169.517L191.014 169.523C190.913 170.13 190.718 170.69 190.428 171.201C190.143 171.708 189.774 172.147 189.324 172.517C188.877 172.883 188.366 173.167 187.79 173.368C187.215 173.569 186.587 173.67 185.907 173.67C184.836 173.67 183.882 173.416 183.045 172.909C182.208 172.398 181.548 171.668 181.065 170.718C180.586 169.768 180.347 168.635 180.347 167.319C180.347 165.999 180.588 164.866 181.071 163.92C181.554 162.971 182.214 162.242 183.051 161.735C183.888 161.224 184.84 160.968 185.907 160.968C186.563 160.968 187.174 161.063 187.742 161.252C188.313 161.437 188.826 161.711 189.281 162.073C189.736 162.431 190.112 162.87 190.41 163.389C190.708 163.904 190.909 164.494 191.014 165.158Z" fill="black"/>
<defs>
<clipPath id="clip0_109_6634">
<rect width="30" height="30" fill="white" transform="translate(245 19)"/>
</clipPath>
</defs>
</svg>
